<svg xmlns="http://www.w3.org/2000/svg" viewBox="0 0 24 24" fill="none" stroke="currentColor" stroke-width="2" stroke-linecap="round" stroke-linejoin="round">
  <path d="M7.2 11.2c-1.4 0-2.6-.5-3.5-1.3C2.6 9 2 7.8 2 6.5 2 4 4.4 2 7.4 2c2.9 0 5.4 1.9 5.4 4.3 0 .5-.1 1-.3 1.5" />
  <path d="M6 9.6 4.4 11l.4-1.9" />
  <path d="M15.6 22c-3.6 0-6.4-2.3-6.4-5.2 0-2.8 2.9-5.2 6.6-5.2 3.7 0 6.2 2.3 6.2 5 0 1.6-.8 3-2.2 3.9" />
  <path d="M18.2 20.7 19.8 22l-.4-1.9" />
  <path d="M6.8 6.1h.01" />
  <path d="M9 6.1h.01" />
  <path d="M14.8 16.1h.01" />
  <path d="M17 16.1h.01" />
</svg>
